<svg id="Layer_86" data-name="Layer 86" xmlns="http://www.w3.org/2000/svg" viewBox="0 0 60 60"><defs><style>.cls-1{fill:#455a64;}</style></defs><title>sort-atoz</title><path class="cls-1" d="M26.31,48.21A1.28,1.28,0,0,1,26,49L15.3,59.7a1.15,1.15,0,0,1-.77.3,1.23,1.23,0,0,1-.78-.3L3,49a1,1,0,0,1-.23-1.18,1,1,0,0,1,1-.66h6.43V1.07a1,1,0,0,1,.3-.77,1,1,0,0,1,.77-.3h6.43a1,1,0,0,1,.77.3,1,1,0,0,1,.3.77V47.15h6.43a1,1,0,0,1,.77.3A1,1,0,0,1,26.31,48.21Zm31,8.24V60H47.64V56.45h2.51l-1.57-4.82H40.45l-1.58,4.82h2.51V60H31.77V56.45h2.35l7.7-22.16h5.42l7.7,22.16Zm-3-38.54v7.8H34.75v-3L47.11,5a5.83,5.83,0,0,1,.7-.91l.37-.3v-.1L48,3.7l-.25,0a4.61,4.61,0,0,1-1,.1H38.94V7.67h-4V0h19V3L41.55,20.73l-.7.87-.38.33V22l.47-.1c.21,0,.54,0,1,0h8.31v-4ZM41.55,48h5.93l-2.42-7.3-.4-1.58c0-.35-.06-.57-.06-.67h-.14l-.1.67s0,.23-.12.61a7.11,7.11,0,0,1-.25,1Z"/></svg>